<?xml version="1.0" encoding="UTF-8" standalone="no"?>
<!DOCTYPE svg PUBLIC "-//W3C//DTD SVG 1.1//EN" "http://www.w3.org/Graphics/SVG/1.1/DTD/svg11.dtd">
<svg width="100%" height="100%" viewBox="0 0 1920 1080" version="1.1" xmlns="http://www.w3.org/2000/svg" xmlns:xlink="http://www.w3.org/1999/xlink" xml:space="preserve" xmlns:serif="http://www.serif.com/" style="fill-rule:evenodd;clip-rule:evenodd;stroke-linejoin:round;stroke-miterlimit:2;">
    <rect id="Artboard2" x="0" y="0" width="1920" height="1080" style="fill:none;"/>
    <path id="start" d="M1893.534,157.085L1893.534,922.915C1893.534,957.319 1865.603,985.25 1831.199,985.25L88.801,985.25C54.397,985.25 26.466,957.319 26.466,922.915L26.466,157.085C26.466,122.681 54.397,94.75 88.801,94.75L1831.199,94.75C1865.603,94.75 1893.534,122.681 1893.534,157.085Z" style="fill:#ebebeb;"/>
    <path id="step-1" serif:id="step 1" d="M1223,958.876C1223,965.87 1220.221,972.579 1215.275,977.525C1210.329,982.471 1203.621,985.25 1196.626,985.25C969.797,985.25 88.801,985.25 88.801,985.25C54.397,985.25 26.466,957.319 26.466,922.915L26.466,157.085C26.466,122.681 54.397,94.75 88.801,94.75L1831.199,94.75C1865.603,94.75 1893.534,122.681 1893.534,157.085L1893.534,879.75L1249.375,879.75C1234.818,879.75 1223,891.568 1223,906.125C1223,906.125 1223,958.875 1223,958.876Z" style="fill:#ebebeb;"/>
    <path id="step-2" serif:id="step 2" d="M1196.626,879.75C1211.192,879.75 1223,891.558 1223,906.124C1223,906.125 1223,906.125 1223,906.125L1223,958.875C1223,965.87 1220.221,972.579 1215.275,977.525C1210.329,982.471 1203.621,985.25 1196.626,985.25L88.801,985.25C54.397,985.25 26.466,957.319 26.466,922.915L26.466,157.085C26.466,122.681 54.397,94.75 88.801,94.75L1831.199,94.75C1865.603,94.75 1893.534,122.681 1893.534,157.085L1893.534,774.25L1088.375,774.25C1073.818,774.25 1062,786.068 1062,800.625L1062,853.375C1062,867.932 1073.818,879.75 1088.375,879.75L1196.626,879.75Z" style="fill:#ebebeb;"/>
    <path id="step-3" d="M1354,747.876C1354,754.87 1351.221,761.579 1346.275,766.525C1341.329,771.471 1334.621,774.25 1327.626,774.25C1243.509,774.25 1088.375,774.25 1088.375,774.25C1073.818,774.25 1062,786.068 1062,800.625L1062,853.375C1062,867.932 1073.818,879.75 1088.375,879.75L1196.626,879.75C1211.192,879.75 1223,891.559 1223,906.125L1223,958.875C1223,965.87 1220.221,972.579 1215.275,977.525C1210.329,982.471 1203.621,985.25 1196.626,985.25L88.801,985.25C54.397,985.25 26.466,957.319 26.466,922.915L26.466,157.085C26.466,122.681 54.397,94.75 88.801,94.75L1831.199,94.75C1865.603,94.75 1893.534,122.681 1893.534,157.085L1893.534,642.376C1893.534,656.942 1881.725,668.75 1867.16,668.75C1867.159,668.75 1867.159,668.75 1867.159,668.75L1380.375,668.75C1365.818,668.75 1354,680.568 1354,695.125C1354,695.125 1354,747.875 1354,747.876Z" style="fill:#ebebeb;"/>
</svg>
