<svg viewBox="87 69.35 616 406.30000000000007" width="616" height="406.30000000000007" fill="#56F09F"><path d=" M97.07403099999999 268.35 L97.07403099999999 268.35 C97.07403099999999 268.35, 97.148062 268.35, 97.148062 268.27596900000003 L97.148062 89.498062 C97.148062 89.498062, 97.148062 79.498062, 107.148062 79.498062 L292.925969 79.498062 C292.925969 79.498062, 293 79.498062, 293 79.424031 L293 79.424031 C293 79.424031, 293 79.35, 293.074031 79.35 L683 79.35 C683 79.35, 693 79.35, 693 89.35 L693 455.65000000000003 C693 455.65000000000003, 693 465.65000000000003, 683 465.65000000000003 L107 465.65000000000003 C107 465.65000000000003, 97 465.65000000000003, 97 455.65000000000003 L97 268.424031 C97 268.424031, 97 268.35, 97.07403099999999 268.35"></path></svg>